<mxfile host="app.diagrams.net" modified="2021-08-24T20:46:58.456Z" agent="5.0 (Windows NT 10.0; Win64; x64) AppleWebKit/537.36 (KHTML, like Gecko) Chrome/92.0.4515.159 Safari/537.36" etag="xGlxcdcV0KCuNwCnFKi0" version="14.9.8" type="github" pages="4">
  <diagram id="CRroM7jZ9fhxYHXaXMaq" name="Usuario">
    <mxGraphModel dx="1370" dy="525" grid="1" gridSize="10" guides="1" tooltips="1" connect="1" arrows="1" fold="1" page="1" pageScale="1" pageWidth="850" pageHeight="1100" math="0" shadow="0">
      <root>
        <mxCell id="0" />
        <mxCell id="1" parent="0" />
        <mxCell id="JMg6hnkiJ_933TLC7B-b-2" style="edgeStyle=orthogonalEdgeStyle;rounded=0;orthogonalLoop=1;jettySize=auto;html=1;exitX=0.5;exitY=1;exitDx=0;exitDy=0;entryX=0.5;entryY=0;entryDx=0;entryDy=0;" edge="1" parent="1" source="eX5xm10bgbclRIosaTlb-5" target="JMg6hnkiJ_933TLC7B-b-1">
          <mxGeometry relative="1" as="geometry" />
        </mxCell>
        <mxCell id="eX5xm10bgbclRIosaTlb-5" value="&lt;span&gt;ingresa el codigo del examen&lt;br&gt;&amp;nbsp;y su email&lt;/span&gt;" style="shape=parallelogram;perimeter=parallelogramPerimeter;whiteSpace=wrap;html=1;fixedSize=1;" parent="1" vertex="1">
          <mxGeometry x="295" y="390" width="190" height="60" as="geometry" />
        </mxCell>
        <mxCell id="fZMSHKYYrzl5zrGfPNuW-5" style="edgeStyle=orthogonalEdgeStyle;rounded=0;orthogonalLoop=1;jettySize=auto;html=1;exitX=0.5;exitY=1;exitDx=0;exitDy=0;entryX=0.5;entryY=0;entryDx=0;entryDy=0;" parent="1" source="fZMSHKYYrzl5zrGfPNuW-1" target="fZMSHKYYrzl5zrGfPNuW-6" edge="1">
          <mxGeometry relative="1" as="geometry">
            <mxPoint x="200" y="190" as="targetPoint" />
          </mxGeometry>
        </mxCell>
        <mxCell id="fZMSHKYYrzl5zrGfPNuW-1" value="inicio" style="ellipse;whiteSpace=wrap;html=1;" parent="1" vertex="1">
          <mxGeometry x="160" y="110" width="80" height="40" as="geometry" />
        </mxCell>
        <mxCell id="fZMSHKYYrzl5zrGfPNuW-2" value="Crear cita" style="text;html=1;align=center;verticalAlign=middle;resizable=0;points=[];autosize=1;strokeColor=none;" parent="1" vertex="1">
          <mxGeometry x="165" y="80" width="70" height="20" as="geometry" />
        </mxCell>
        <mxCell id="fZMSHKYYrzl5zrGfPNuW-8" style="edgeStyle=orthogonalEdgeStyle;rounded=0;orthogonalLoop=1;jettySize=auto;html=1;exitX=0.5;exitY=1;exitDx=0;exitDy=0;entryX=0.5;entryY=0;entryDx=0;entryDy=0;" parent="1" source="fZMSHKYYrzl5zrGfPNuW-6" target="eX5xm10bgbclRIosaTlb-1" edge="1">
          <mxGeometry relative="1" as="geometry">
            <mxPoint x="200" y="290" as="targetPoint" />
          </mxGeometry>
        </mxCell>
        <mxCell id="fZMSHKYYrzl5zrGfPNuW-6" value="Ingreso de datos personales" style="shape=parallelogram;perimeter=parallelogramPerimeter;whiteSpace=wrap;html=1;fixedSize=1;" parent="1" vertex="1">
          <mxGeometry x="125" y="190" width="150" height="60" as="geometry" />
        </mxCell>
        <mxCell id="eX5xm10bgbclRIosaTlb-4" style="edgeStyle=orthogonalEdgeStyle;rounded=0;orthogonalLoop=1;jettySize=auto;html=1;exitX=0.5;exitY=1;exitDx=0;exitDy=0;entryX=0.5;entryY=0;entryDx=0;entryDy=0;" parent="1" source="fZMSHKYYrzl5zrGfPNuW-11" target="eX5xm10bgbclRIosaTlb-3" edge="1">
          <mxGeometry relative="1" as="geometry" />
        </mxCell>
        <mxCell id="fZMSHKYYrzl5zrGfPNuW-11" value="se informa de la confirmacion de la cita (fecha y hora)" style="rounded=1;whiteSpace=wrap;html=1;" parent="1" vertex="1">
          <mxGeometry x="140" y="390" width="120" height="60" as="geometry" />
        </mxCell>
        <mxCell id="fZMSHKYYrzl5zrGfPNuW-18" style="edgeStyle=orthogonalEdgeStyle;rounded=0;orthogonalLoop=1;jettySize=auto;html=1;exitX=0.5;exitY=1;exitDx=0;exitDy=0;entryX=0.5;entryY=0;entryDx=0;entryDy=0;" parent="1" source="fZMSHKYYrzl5zrGfPNuW-16" target="fZMSHKYYrzl5zrGfPNuW-17" edge="1">
          <mxGeometry relative="1" as="geometry" />
        </mxCell>
        <mxCell id="fZMSHKYYrzl5zrGfPNuW-16" value="inicio" style="ellipse;whiteSpace=wrap;html=1;" parent="1" vertex="1">
          <mxGeometry x="350" y="110" width="80" height="40" as="geometry" />
        </mxCell>
        <mxCell id="fZMSHKYYrzl5zrGfPNuW-20" style="edgeStyle=orthogonalEdgeStyle;rounded=0;orthogonalLoop=1;jettySize=auto;html=1;exitX=0.5;exitY=1;exitDx=0;exitDy=0;entryX=0.5;entryY=0;entryDx=0;entryDy=0;" parent="1" source="fZMSHKYYrzl5zrGfPNuW-17" target="fZMSHKYYrzl5zrGfPNuW-21" edge="1">
          <mxGeometry relative="1" as="geometry">
            <mxPoint x="390" y="310" as="targetPoint" />
          </mxGeometry>
        </mxCell>
        <mxCell id="fZMSHKYYrzl5zrGfPNuW-17" value="usuario selecciona&amp;nbsp;&lt;br&gt;el examen" style="shape=parallelogram;perimeter=parallelogramPerimeter;whiteSpace=wrap;html=1;fixedSize=1;" parent="1" vertex="1">
          <mxGeometry x="320" y="200" width="140" height="60" as="geometry" />
        </mxCell>
        <mxCell id="fZMSHKYYrzl5zrGfPNuW-24" style="edgeStyle=orthogonalEdgeStyle;rounded=0;orthogonalLoop=1;jettySize=auto;html=1;exitX=0.5;exitY=1;exitDx=0;exitDy=0;" parent="1" source="fZMSHKYYrzl5zrGfPNuW-21" edge="1">
          <mxGeometry relative="1" as="geometry">
            <mxPoint x="390" y="390" as="targetPoint" />
          </mxGeometry>
        </mxCell>
        <mxCell id="fZMSHKYYrzl5zrGfPNuW-21" value="usuario realiza el examen" style="rounded=1;whiteSpace=wrap;html=1;" parent="1" vertex="1">
          <mxGeometry x="330" y="300" width="120" height="60" as="geometry" />
        </mxCell>
        <mxCell id="eX5xm10bgbclRIosaTlb-7" style="edgeStyle=orthogonalEdgeStyle;rounded=0;orthogonalLoop=1;jettySize=auto;html=1;exitX=0;exitY=0.5;exitDx=0;exitDy=0;entryX=0.913;entryY=0;entryDx=0;entryDy=0;endArrow=oval;endFill=0;entryPerimeter=0;" parent="1" edge="1">
          <mxGeometry relative="1" as="geometry">
            <mxPoint x="510" y="370" as="sourcePoint" />
            <mxPoint x="468.4699999999998" y="390" as="targetPoint" />
          </mxGeometry>
        </mxCell>
        <mxCell id="fZMSHKYYrzl5zrGfPNuW-25" value="alguien que ya tuvo una cita." style="rounded=0;whiteSpace=wrap;html=1;" parent="1" vertex="1">
          <mxGeometry x="510" y="350" width="120" height="60" as="geometry" />
        </mxCell>
        <mxCell id="fZMSHKYYrzl5zrGfPNuW-29" style="edgeStyle=orthogonalEdgeStyle;rounded=0;orthogonalLoop=1;jettySize=auto;html=1;exitX=0.5;exitY=1;exitDx=0;exitDy=0;entryX=0.5;entryY=0;entryDx=0;entryDy=0;" parent="1" source="fZMSHKYYrzl5zrGfPNuW-26" target="eX5xm10bgbclRIosaTlb-8" edge="1">
          <mxGeometry relative="1" as="geometry">
            <mxPoint x="390" y="670" as="targetPoint" />
          </mxGeometry>
        </mxCell>
        <mxCell id="fZMSHKYYrzl5zrGfPNuW-26" value="se genera PDF que se le envia a la psicologa" style="rounded=1;whiteSpace=wrap;html=1;" parent="1" vertex="1">
          <mxGeometry x="330" y="570" width="120" height="60" as="geometry" />
        </mxCell>
        <mxCell id="yYTwBqrpgduBMSaWN51G-1" value="Examen realizado" style="text;html=1;align=center;verticalAlign=middle;resizable=0;points=[];autosize=1;strokeColor=none;" parent="1" vertex="1">
          <mxGeometry x="335" y="80" width="110" height="20" as="geometry" />
        </mxCell>
        <mxCell id="eX5xm10bgbclRIosaTlb-2" style="edgeStyle=orthogonalEdgeStyle;rounded=0;orthogonalLoop=1;jettySize=auto;html=1;exitX=0.5;exitY=1;exitDx=0;exitDy=0;entryX=0.5;entryY=0;entryDx=0;entryDy=0;" parent="1" source="eX5xm10bgbclRIosaTlb-1" target="fZMSHKYYrzl5zrGfPNuW-11" edge="1">
          <mxGeometry relative="1" as="geometry" />
        </mxCell>
        <mxCell id="eX5xm10bgbclRIosaTlb-1" value="se muestra una lista de horarios disponibles" style="rounded=1;whiteSpace=wrap;html=1;" parent="1" vertex="1">
          <mxGeometry x="140" y="290" width="120" height="60" as="geometry" />
        </mxCell>
        <mxCell id="eX5xm10bgbclRIosaTlb-3" value="end" style="ellipse;whiteSpace=wrap;html=1;" parent="1" vertex="1">
          <mxGeometry x="160" y="480" width="80" height="40" as="geometry" />
        </mxCell>
        <mxCell id="eX5xm10bgbclRIosaTlb-10" style="edgeStyle=orthogonalEdgeStyle;rounded=0;orthogonalLoop=1;jettySize=auto;html=1;exitX=0.5;exitY=1;exitDx=0;exitDy=0;entryX=0.5;entryY=0;entryDx=0;entryDy=0;endArrow=classic;endFill=1;" parent="1" source="eX5xm10bgbclRIosaTlb-8" target="eX5xm10bgbclRIosaTlb-9" edge="1">
          <mxGeometry relative="1" as="geometry" />
        </mxCell>
        <mxCell id="eX5xm10bgbclRIosaTlb-8" value="confirmacion de envio de la prueba exitoso al usuario" style="rounded=1;whiteSpace=wrap;html=1;" parent="1" vertex="1">
          <mxGeometry x="330" y="660" width="120" height="60" as="geometry" />
        </mxCell>
        <mxCell id="eX5xm10bgbclRIosaTlb-9" value="end" style="ellipse;whiteSpace=wrap;html=1;" parent="1" vertex="1">
          <mxGeometry x="350" y="750" width="80" height="40" as="geometry" />
        </mxCell>
        <mxCell id="eX5xm10bgbclRIosaTlb-13" value="cada cita dura dos horas" style="text;html=1;align=center;verticalAlign=middle;resizable=0;points=[];autosize=1;strokeColor=none;" parent="1" vertex="1">
          <mxGeometry x="125" y="30" width="150" height="20" as="geometry" />
        </mxCell>
        <mxCell id="JMg6hnkiJ_933TLC7B-b-4" style="edgeStyle=orthogonalEdgeStyle;rounded=0;orthogonalLoop=1;jettySize=auto;html=1;exitX=0.5;exitY=1;exitDx=0;exitDy=0;entryX=0.5;entryY=0;entryDx=0;entryDy=0;" edge="1" parent="1" source="JMg6hnkiJ_933TLC7B-b-1" target="fZMSHKYYrzl5zrGfPNuW-26">
          <mxGeometry relative="1" as="geometry" />
        </mxCell>
        <mxCell id="JMg6hnkiJ_933TLC7B-b-7" style="edgeStyle=orthogonalEdgeStyle;rounded=0;orthogonalLoop=1;jettySize=auto;html=1;exitX=1;exitY=0.5;exitDx=0;exitDy=0;entryX=0.5;entryY=0;entryDx=0;entryDy=0;" edge="1" parent="1" source="JMg6hnkiJ_933TLC7B-b-1" target="JMg6hnkiJ_933TLC7B-b-6">
          <mxGeometry relative="1" as="geometry" />
        </mxCell>
        <mxCell id="JMg6hnkiJ_933TLC7B-b-1" value="" style="rhombus;whiteSpace=wrap;html=1;" vertex="1" parent="1">
          <mxGeometry x="380" y="490" width="20" height="40" as="geometry" />
        </mxCell>
        <mxCell id="JMg6hnkiJ_933TLC7B-b-3" value="[codigoExamen]" style="text;html=1;align=center;verticalAlign=middle;resizable=0;points=[];autosize=1;strokeColor=none;" vertex="1" parent="1">
          <mxGeometry x="290" y="460" width="100" height="20" as="geometry" />
        </mxCell>
        <mxCell id="JMg6hnkiJ_933TLC7B-b-8" style="edgeStyle=orthogonalEdgeStyle;rounded=0;orthogonalLoop=1;jettySize=auto;html=1;exitX=0.5;exitY=1;exitDx=0;exitDy=0;" edge="1" parent="1" source="JMg6hnkiJ_933TLC7B-b-6">
          <mxGeometry relative="1" as="geometry">
            <mxPoint x="390" y="750" as="targetPoint" />
            <Array as="points">
              <mxPoint x="540" y="730" />
              <mxPoint x="390" y="730" />
            </Array>
          </mxGeometry>
        </mxCell>
        <mxCell id="JMg6hnkiJ_933TLC7B-b-6" value="error de codigo" style="rounded=1;whiteSpace=wrap;html=1;" vertex="1" parent="1">
          <mxGeometry x="480" y="530" width="120" height="60" as="geometry" />
        </mxCell>
      </root>
    </mxGraphModel>
  </diagram>
  <diagram id="UP5izUtcUaurdw8S0svs" name="Secretaria">
    <mxGraphModel dx="2220" dy="525" grid="1" gridSize="10" guides="1" tooltips="1" connect="1" arrows="1" fold="1" page="1" pageScale="1" pageWidth="850" pageHeight="1100" math="0" shadow="0">
      <root>
        <mxCell id="hbpeImEf1GhuZ4yugkvu-0" />
        <mxCell id="hbpeImEf1GhuZ4yugkvu-1" parent="hbpeImEf1GhuZ4yugkvu-0" />
        <mxCell id="hbpeImEf1GhuZ4yugkvu-2" value="Visualizar y cancelar citas" style="text;html=1;align=center;verticalAlign=middle;resizable=0;points=[];autosize=1;strokeColor=none;" parent="hbpeImEf1GhuZ4yugkvu-1" vertex="1">
          <mxGeometry x="210" y="90" width="150" height="20" as="geometry" />
        </mxCell>
        <mxCell id="hbpeImEf1GhuZ4yugkvu-5" style="edgeStyle=orthogonalEdgeStyle;rounded=0;orthogonalLoop=1;jettySize=auto;html=1;exitX=0.5;exitY=1;exitDx=0;exitDy=0;entryX=0.5;entryY=0;entryDx=0;entryDy=0;" parent="hbpeImEf1GhuZ4yugkvu-1" source="hbpeImEf1GhuZ4yugkvu-3" target="hbpeImEf1GhuZ4yugkvu-4" edge="1">
          <mxGeometry relative="1" as="geometry" />
        </mxCell>
        <mxCell id="hbpeImEf1GhuZ4yugkvu-3" value="inicio" style="ellipse;whiteSpace=wrap;html=1;" parent="hbpeImEf1GhuZ4yugkvu-1" vertex="1">
          <mxGeometry x="245" y="130" width="80" height="40" as="geometry" />
        </mxCell>
        <mxCell id="hbpeImEf1GhuZ4yugkvu-7" style="edgeStyle=orthogonalEdgeStyle;rounded=0;orthogonalLoop=1;jettySize=auto;html=1;exitX=0.5;exitY=1;exitDx=0;exitDy=0;entryX=0.5;entryY=0;entryDx=0;entryDy=0;" parent="hbpeImEf1GhuZ4yugkvu-1" source="hbpeImEf1GhuZ4yugkvu-4" target="hbpeImEf1GhuZ4yugkvu-6" edge="1">
          <mxGeometry relative="1" as="geometry" />
        </mxCell>
        <mxCell id="hbpeImEf1GhuZ4yugkvu-4" value="usuario &lt;br&gt;y password" style="shape=parallelogram;perimeter=parallelogramPerimeter;whiteSpace=wrap;html=1;fixedSize=1;" parent="hbpeImEf1GhuZ4yugkvu-1" vertex="1">
          <mxGeometry x="225" y="210" width="120" height="60" as="geometry" />
        </mxCell>
        <mxCell id="hbpeImEf1GhuZ4yugkvu-9" style="edgeStyle=orthogonalEdgeStyle;rounded=0;orthogonalLoop=1;jettySize=auto;html=1;exitX=0.5;exitY=1;exitDx=0;exitDy=0;entryX=0.5;entryY=0;entryDx=0;entryDy=0;" parent="hbpeImEf1GhuZ4yugkvu-1" source="hbpeImEf1GhuZ4yugkvu-6" target="hbpeImEf1GhuZ4yugkvu-8" edge="1">
          <mxGeometry relative="1" as="geometry" />
        </mxCell>
        <mxCell id="hbpeImEf1GhuZ4yugkvu-6" value="visualizar citas" style="rounded=1;whiteSpace=wrap;html=1;" parent="hbpeImEf1GhuZ4yugkvu-1" vertex="1">
          <mxGeometry x="225" y="300" width="120" height="60" as="geometry" />
        </mxCell>
        <mxCell id="hbpeImEf1GhuZ4yugkvu-11" style="edgeStyle=orthogonalEdgeStyle;rounded=0;orthogonalLoop=1;jettySize=auto;html=1;exitX=0.5;exitY=1;exitDx=0;exitDy=0;entryX=0.5;entryY=0;entryDx=0;entryDy=0;" parent="hbpeImEf1GhuZ4yugkvu-1" source="hbpeImEf1GhuZ4yugkvu-8" target="hbpeImEf1GhuZ4yugkvu-10" edge="1">
          <mxGeometry relative="1" as="geometry" />
        </mxCell>
        <mxCell id="hbpeImEf1GhuZ4yugkvu-13" style="edgeStyle=orthogonalEdgeStyle;rounded=0;orthogonalLoop=1;jettySize=auto;html=1;exitX=1;exitY=0.5;exitDx=0;exitDy=0;entryX=0.5;entryY=0;entryDx=0;entryDy=0;" parent="hbpeImEf1GhuZ4yugkvu-1" source="hbpeImEf1GhuZ4yugkvu-8" target="hbpeImEf1GhuZ4yugkvu-15" edge="1">
          <mxGeometry relative="1" as="geometry">
            <mxPoint x="285" y="580" as="targetPoint" />
            <Array as="points">
              <mxPoint x="390" y="410" />
              <mxPoint x="390" y="550" />
              <mxPoint x="285" y="550" />
              <mxPoint x="285" y="600" />
            </Array>
          </mxGeometry>
        </mxCell>
        <mxCell id="hbpeImEf1GhuZ4yugkvu-8" value="" style="rhombus;whiteSpace=wrap;html=1;" parent="hbpeImEf1GhuZ4yugkvu-1" vertex="1">
          <mxGeometry x="275" y="390" width="20" height="40" as="geometry" />
        </mxCell>
        <mxCell id="hbpeImEf1GhuZ4yugkvu-14" style="edgeStyle=orthogonalEdgeStyle;rounded=0;orthogonalLoop=1;jettySize=auto;html=1;exitX=0.5;exitY=1;exitDx=0;exitDy=0;" parent="hbpeImEf1GhuZ4yugkvu-1" source="hbpeImEf1GhuZ4yugkvu-10" edge="1">
          <mxGeometry relative="1" as="geometry">
            <mxPoint x="285" y="600" as="targetPoint" />
          </mxGeometry>
        </mxCell>
        <mxCell id="hbpeImEf1GhuZ4yugkvu-10" value="cita cancelada" style="rounded=1;whiteSpace=wrap;html=1;" parent="hbpeImEf1GhuZ4yugkvu-1" vertex="1">
          <mxGeometry x="225" y="460" width="120" height="60" as="geometry" />
        </mxCell>
        <mxCell id="hbpeImEf1GhuZ4yugkvu-15" value="end" style="ellipse;whiteSpace=wrap;html=1;" parent="hbpeImEf1GhuZ4yugkvu-1" vertex="1">
          <mxGeometry x="245" y="600" width="80" height="40" as="geometry" />
        </mxCell>
        <mxCell id="_Zo_ZktqomZC_42Jco5o-0" value="CANCELAR CITA" style="text;html=1;align=center;verticalAlign=middle;resizable=0;points=[];autosize=1;strokeColor=none;" vertex="1" parent="hbpeImEf1GhuZ4yugkvu-1">
          <mxGeometry x="-105" y="80" width="110" height="20" as="geometry" />
        </mxCell>
        <mxCell id="_Zo_ZktqomZC_42Jco5o-1" style="edgeStyle=orthogonalEdgeStyle;rounded=0;orthogonalLoop=1;jettySize=auto;html=1;exitX=0.5;exitY=1;exitDx=0;exitDy=0;" edge="1" parent="hbpeImEf1GhuZ4yugkvu-1" source="_Zo_ZktqomZC_42Jco5o-2" target="_Zo_ZktqomZC_42Jco5o-4">
          <mxGeometry relative="1" as="geometry" />
        </mxCell>
        <mxCell id="_Zo_ZktqomZC_42Jco5o-2" value="inicio" style="ellipse;whiteSpace=wrap;html=1;" vertex="1" parent="hbpeImEf1GhuZ4yugkvu-1">
          <mxGeometry x="-90" y="120" width="80" height="40" as="geometry" />
        </mxCell>
        <mxCell id="_Zo_ZktqomZC_42Jco5o-3" style="edgeStyle=orthogonalEdgeStyle;rounded=0;orthogonalLoop=1;jettySize=auto;html=1;exitX=0.5;exitY=1;exitDx=0;exitDy=0;entryX=0.5;entryY=0;entryDx=0;entryDy=0;" edge="1" parent="hbpeImEf1GhuZ4yugkvu-1" source="_Zo_ZktqomZC_42Jco5o-4" target="_Zo_ZktqomZC_42Jco5o-6">
          <mxGeometry relative="1" as="geometry" />
        </mxCell>
        <mxCell id="_Zo_ZktqomZC_42Jco5o-4" value="codigo de usuario" style="shape=parallelogram;perimeter=parallelogramPerimeter;whiteSpace=wrap;html=1;fixedSize=1;" vertex="1" parent="hbpeImEf1GhuZ4yugkvu-1">
          <mxGeometry x="-125" y="210" width="150" height="60" as="geometry" />
        </mxCell>
        <mxCell id="_Zo_ZktqomZC_42Jco5o-5" style="edgeStyle=orthogonalEdgeStyle;rounded=0;orthogonalLoop=1;jettySize=auto;html=1;exitX=0.5;exitY=1;exitDx=0;exitDy=0;entryX=0.5;entryY=0;entryDx=0;entryDy=0;" edge="1" parent="hbpeImEf1GhuZ4yugkvu-1" source="_Zo_ZktqomZC_42Jco5o-6" target="_Zo_ZktqomZC_42Jco5o-9">
          <mxGeometry relative="1" as="geometry">
            <mxPoint x="-50" y="400" as="targetPoint" />
          </mxGeometry>
        </mxCell>
        <mxCell id="_Zo_ZktqomZC_42Jco5o-6" value="se cancela la cita,&lt;br&gt;" style="rounded=1;whiteSpace=wrap;html=1;" vertex="1" parent="hbpeImEf1GhuZ4yugkvu-1">
          <mxGeometry x="-110" y="300" width="120" height="50" as="geometry" />
        </mxCell>
        <mxCell id="_Zo_ZktqomZC_42Jco5o-7" style="edgeStyle=orthogonalEdgeStyle;rounded=0;orthogonalLoop=1;jettySize=auto;html=1;exitX=0.5;exitY=1;exitDx=0;exitDy=0;entryX=0.5;entryY=0;entryDx=0;entryDy=0;" edge="1" parent="hbpeImEf1GhuZ4yugkvu-1" source="_Zo_ZktqomZC_42Jco5o-9" target="_Zo_ZktqomZC_42Jco5o-10">
          <mxGeometry relative="1" as="geometry" />
        </mxCell>
        <mxCell id="_Zo_ZktqomZC_42Jco5o-8" style="edgeStyle=orthogonalEdgeStyle;rounded=0;orthogonalLoop=1;jettySize=auto;html=1;exitX=1;exitY=0.5;exitDx=0;exitDy=0;entryX=0.5;entryY=0;entryDx=0;entryDy=0;" edge="1" parent="hbpeImEf1GhuZ4yugkvu-1" source="_Zo_ZktqomZC_42Jco5o-9" target="_Zo_ZktqomZC_42Jco5o-11">
          <mxGeometry relative="1" as="geometry" />
        </mxCell>
        <mxCell id="_Zo_ZktqomZC_42Jco5o-9" value="" style="rhombus;whiteSpace=wrap;html=1;" vertex="1" parent="hbpeImEf1GhuZ4yugkvu-1">
          <mxGeometry x="-60" y="380" width="20" height="40" as="geometry" />
        </mxCell>
        <mxCell id="_Zo_ZktqomZC_42Jco5o-10" value="horario no disponible" style="rounded=1;whiteSpace=wrap;html=1;" vertex="1" parent="hbpeImEf1GhuZ4yugkvu-1">
          <mxGeometry x="-110" y="530" width="120" height="60" as="geometry" />
        </mxCell>
        <mxCell id="_Zo_ZktqomZC_42Jco5o-11" value="horario disponible" style="rounded=1;whiteSpace=wrap;html=1;" vertex="1" parent="hbpeImEf1GhuZ4yugkvu-1">
          <mxGeometry x="5" y="450" width="120" height="60" as="geometry" />
        </mxCell>
        <mxCell id="_Zo_ZktqomZC_42Jco5o-12" value="false" style="text;html=1;align=center;verticalAlign=middle;resizable=0;points=[];autosize=1;strokeColor=none;" vertex="1" parent="hbpeImEf1GhuZ4yugkvu-1">
          <mxGeometry x="-40" y="370" width="40" height="20" as="geometry" />
        </mxCell>
        <mxCell id="_Zo_ZktqomZC_42Jco5o-13" value="true" style="text;html=1;align=center;verticalAlign=middle;resizable=0;points=[];autosize=1;strokeColor=none;" vertex="1" parent="hbpeImEf1GhuZ4yugkvu-1">
          <mxGeometry x="-100" y="410" width="40" height="20" as="geometry" />
        </mxCell>
        <mxCell id="iAMp8Na1epCVdn8ZqVQw-0" value="[se ha cancelado en el mismo dia]" style="text;html=1;align=center;verticalAlign=middle;resizable=0;points=[];autosize=1;strokeColor=none;" vertex="1" parent="hbpeImEf1GhuZ4yugkvu-1">
          <mxGeometry x="-340" y="190" width="200" height="20" as="geometry" />
        </mxCell>
      </root>
    </mxGraphModel>
  </diagram>
  <diagram id="Ko8-fdpNWYHcCxT_JkuJ" name="Psicologa">
    <mxGraphModel dx="1370" dy="525" grid="1" gridSize="10" guides="1" tooltips="1" connect="1" arrows="1" fold="1" page="1" pageScale="1" pageWidth="850" pageHeight="1100" math="0" shadow="0">
      <root>
        <mxCell id="WuM3ypO7jnrG1kjo84e_-0" />
        <mxCell id="WuM3ypO7jnrG1kjo84e_-1" parent="WuM3ypO7jnrG1kjo84e_-0" />
      </root>
    </mxGraphModel>
  </diagram>
  <diagram id="Vvp3_R2-Hs2nd10UY5jH" name="Login">
    <mxGraphModel dx="1370" dy="525" grid="1" gridSize="10" guides="1" tooltips="1" connect="1" arrows="1" fold="1" page="1" pageScale="1" pageWidth="850" pageHeight="1100" math="0" shadow="0">
      <root>
        <mxCell id="tITBh37vI7phjKR3xwDL-0" />
        <mxCell id="tITBh37vI7phjKR3xwDL-1" parent="tITBh37vI7phjKR3xwDL-0" />
        <mxCell id="tITBh37vI7phjKR3xwDL-4" style="edgeStyle=orthogonalEdgeStyle;rounded=0;orthogonalLoop=1;jettySize=auto;html=1;exitX=0.5;exitY=1;exitDx=0;exitDy=0;" edge="1" parent="tITBh37vI7phjKR3xwDL-1" source="tITBh37vI7phjKR3xwDL-2" target="tITBh37vI7phjKR3xwDL-3">
          <mxGeometry relative="1" as="geometry" />
        </mxCell>
        <mxCell id="tITBh37vI7phjKR3xwDL-2" value="inicio" style="ellipse;whiteSpace=wrap;html=1;" vertex="1" parent="tITBh37vI7phjKR3xwDL-1">
          <mxGeometry x="260" y="120" width="80" height="40" as="geometry" />
        </mxCell>
        <mxCell id="tITBh37vI7phjKR3xwDL-6" style="edgeStyle=orthogonalEdgeStyle;rounded=0;orthogonalLoop=1;jettySize=auto;html=1;exitX=0.5;exitY=1;exitDx=0;exitDy=0;entryX=0.5;entryY=0;entryDx=0;entryDy=0;" edge="1" parent="tITBh37vI7phjKR3xwDL-1" source="tITBh37vI7phjKR3xwDL-3" target="tITBh37vI7phjKR3xwDL-5">
          <mxGeometry relative="1" as="geometry" />
        </mxCell>
        <mxCell id="tITBh37vI7phjKR3xwDL-3" value="usuario, password" style="shape=parallelogram;perimeter=parallelogramPerimeter;whiteSpace=wrap;html=1;fixedSize=1;" vertex="1" parent="tITBh37vI7phjKR3xwDL-1">
          <mxGeometry x="240" y="210" width="120" height="60" as="geometry" />
        </mxCell>
        <mxCell id="tITBh37vI7phjKR3xwDL-10" style="edgeStyle=orthogonalEdgeStyle;rounded=0;orthogonalLoop=1;jettySize=auto;html=1;exitX=0.5;exitY=1;exitDx=0;exitDy=0;entryX=0.5;entryY=0;entryDx=0;entryDy=0;" edge="1" parent="tITBh37vI7phjKR3xwDL-1" source="tITBh37vI7phjKR3xwDL-5" target="tITBh37vI7phjKR3xwDL-9">
          <mxGeometry relative="1" as="geometry" />
        </mxCell>
        <mxCell id="tITBh37vI7phjKR3xwDL-5" value="consultar en la BD&lt;br&gt;y obtener si es especialista o no" style="rounded=1;whiteSpace=wrap;html=1;" vertex="1" parent="tITBh37vI7phjKR3xwDL-1">
          <mxGeometry x="240" y="300" width="120" height="60" as="geometry" />
        </mxCell>
        <mxCell id="tITBh37vI7phjKR3xwDL-17" style="edgeStyle=orthogonalEdgeStyle;rounded=0;orthogonalLoop=1;jettySize=auto;html=1;exitX=0.5;exitY=1;exitDx=0;exitDy=0;entryX=0.5;entryY=0;entryDx=0;entryDy=0;" edge="1" parent="tITBh37vI7phjKR3xwDL-1" source="tITBh37vI7phjKR3xwDL-7" target="tITBh37vI7phjKR3xwDL-16">
          <mxGeometry relative="1" as="geometry" />
        </mxCell>
        <mxCell id="tITBh37vI7phjKR3xwDL-7" value="Generar JWT" style="rounded=1;whiteSpace=wrap;html=1;" vertex="1" parent="tITBh37vI7phjKR3xwDL-1">
          <mxGeometry x="240" y="520" width="120" height="60" as="geometry" />
        </mxCell>
        <mxCell id="tITBh37vI7phjKR3xwDL-20" style="edgeStyle=orthogonalEdgeStyle;rounded=0;orthogonalLoop=1;jettySize=auto;html=1;exitX=0.5;exitY=1;exitDx=0;exitDy=0;entryX=0.5;entryY=0;entryDx=0;entryDy=0;" edge="1" parent="tITBh37vI7phjKR3xwDL-1" source="tITBh37vI7phjKR3xwDL-8" target="tITBh37vI7phjKR3xwDL-18">
          <mxGeometry relative="1" as="geometry">
            <Array as="points">
              <mxPoint x="470" y="690" />
              <mxPoint x="300" y="690" />
            </Array>
          </mxGeometry>
        </mxCell>
        <mxCell id="tITBh37vI7phjKR3xwDL-8" value="Error 406: Not Acceptable&lt;br&gt;Mensaje: usuario/password no coinciden" style="rounded=1;whiteSpace=wrap;html=1;" vertex="1" parent="tITBh37vI7phjKR3xwDL-1">
          <mxGeometry x="400" y="430" width="140" height="80" as="geometry" />
        </mxCell>
        <mxCell id="tITBh37vI7phjKR3xwDL-11" style="edgeStyle=orthogonalEdgeStyle;rounded=0;orthogonalLoop=1;jettySize=auto;html=1;exitX=0.5;exitY=1;exitDx=0;exitDy=0;entryX=0.5;entryY=0;entryDx=0;entryDy=0;" edge="1" parent="tITBh37vI7phjKR3xwDL-1" source="tITBh37vI7phjKR3xwDL-9" target="tITBh37vI7phjKR3xwDL-7">
          <mxGeometry relative="1" as="geometry" />
        </mxCell>
        <mxCell id="tITBh37vI7phjKR3xwDL-12" style="edgeStyle=orthogonalEdgeStyle;rounded=0;orthogonalLoop=1;jettySize=auto;html=1;exitX=1;exitY=0.5;exitDx=0;exitDy=0;entryX=0.5;entryY=0;entryDx=0;entryDy=0;" edge="1" parent="tITBh37vI7phjKR3xwDL-1" source="tITBh37vI7phjKR3xwDL-9" target="tITBh37vI7phjKR3xwDL-8">
          <mxGeometry relative="1" as="geometry" />
        </mxCell>
        <mxCell id="tITBh37vI7phjKR3xwDL-9" value="" style="rhombus;whiteSpace=wrap;html=1;" vertex="1" parent="tITBh37vI7phjKR3xwDL-1">
          <mxGeometry x="290" y="390" width="20" height="40" as="geometry" />
        </mxCell>
        <mxCell id="tITBh37vI7phjKR3xwDL-13" value="[datos validos]" style="text;html=1;align=center;verticalAlign=middle;resizable=0;points=[];autosize=1;strokeColor=none;" vertex="1" parent="tITBh37vI7phjKR3xwDL-1">
          <mxGeometry x="215" y="360" width="90" height="20" as="geometry" />
        </mxCell>
        <mxCell id="tITBh37vI7phjKR3xwDL-14" value="T" style="text;html=1;align=center;verticalAlign=middle;resizable=0;points=[];autosize=1;strokeColor=none;" vertex="1" parent="tITBh37vI7phjKR3xwDL-1">
          <mxGeometry x="270" y="420" width="20" height="20" as="geometry" />
        </mxCell>
        <mxCell id="tITBh37vI7phjKR3xwDL-15" value="F" style="text;html=1;align=center;verticalAlign=middle;resizable=0;points=[];autosize=1;strokeColor=none;" vertex="1" parent="tITBh37vI7phjKR3xwDL-1">
          <mxGeometry x="320" y="390" width="20" height="20" as="geometry" />
        </mxCell>
        <mxCell id="tITBh37vI7phjKR3xwDL-19" style="edgeStyle=orthogonalEdgeStyle;rounded=0;orthogonalLoop=1;jettySize=auto;html=1;exitX=0.5;exitY=1;exitDx=0;exitDy=0;entryX=0.5;entryY=0;entryDx=0;entryDy=0;" edge="1" parent="tITBh37vI7phjKR3xwDL-1" source="tITBh37vI7phjKR3xwDL-16" target="tITBh37vI7phjKR3xwDL-18">
          <mxGeometry relative="1" as="geometry" />
        </mxCell>
        <mxCell id="tITBh37vI7phjKR3xwDL-16" value="Respuesta 200 y JWT" style="rounded=1;whiteSpace=wrap;html=1;" vertex="1" parent="tITBh37vI7phjKR3xwDL-1">
          <mxGeometry x="240" y="610" width="120" height="60" as="geometry" />
        </mxCell>
        <mxCell id="tITBh37vI7phjKR3xwDL-18" value="fin" style="ellipse;whiteSpace=wrap;html=1;" vertex="1" parent="tITBh37vI7phjKR3xwDL-1">
          <mxGeometry x="260" y="720" width="80" height="40" as="geometry" />
        </mxCell>
        <mxCell id="tITBh37vI7phjKR3xwDL-21" value="Login" style="text;html=1;align=center;verticalAlign=middle;resizable=0;points=[];autosize=1;strokeColor=none;" vertex="1" parent="tITBh37vI7phjKR3xwDL-1">
          <mxGeometry x="280" y="90" width="40" height="20" as="geometry" />
        </mxCell>
        <mxCell id="tITBh37vI7phjKR3xwDL-22" value="Logout" style="text;html=1;align=center;verticalAlign=middle;resizable=0;points=[];autosize=1;strokeColor=none;" vertex="1" parent="tITBh37vI7phjKR3xwDL-1">
          <mxGeometry x="680" y="90" width="50" height="20" as="geometry" />
        </mxCell>
        <mxCell id="tITBh37vI7phjKR3xwDL-25" style="edgeStyle=orthogonalEdgeStyle;rounded=0;orthogonalLoop=1;jettySize=auto;html=1;exitX=0.5;exitY=1;exitDx=0;exitDy=0;entryX=0.5;entryY=0;entryDx=0;entryDy=0;" edge="1" parent="tITBh37vI7phjKR3xwDL-1" source="tITBh37vI7phjKR3xwDL-23" target="tITBh37vI7phjKR3xwDL-24">
          <mxGeometry relative="1" as="geometry" />
        </mxCell>
        <mxCell id="tITBh37vI7phjKR3xwDL-23" value="inicio" style="ellipse;whiteSpace=wrap;html=1;" vertex="1" parent="tITBh37vI7phjKR3xwDL-1">
          <mxGeometry x="665" y="130" width="80" height="40" as="geometry" />
        </mxCell>
        <mxCell id="tITBh37vI7phjKR3xwDL-29" style="edgeStyle=orthogonalEdgeStyle;rounded=0;orthogonalLoop=1;jettySize=auto;html=1;exitX=0.5;exitY=1;exitDx=0;exitDy=0;entryX=0.5;entryY=0;entryDx=0;entryDy=0;" edge="1" parent="tITBh37vI7phjKR3xwDL-1" source="tITBh37vI7phjKR3xwDL-24" target="tITBh37vI7phjKR3xwDL-27">
          <mxGeometry relative="1" as="geometry" />
        </mxCell>
        <mxCell id="tITBh37vI7phjKR3xwDL-24" value="JWT" style="shape=parallelogram;perimeter=parallelogramPerimeter;whiteSpace=wrap;html=1;fixedSize=1;" vertex="1" parent="tITBh37vI7phjKR3xwDL-1">
          <mxGeometry x="645" y="210" width="120" height="60" as="geometry" />
        </mxCell>
        <mxCell id="tITBh37vI7phjKR3xwDL-34" style="edgeStyle=orthogonalEdgeStyle;rounded=0;orthogonalLoop=1;jettySize=auto;html=1;exitX=1;exitY=0.5;exitDx=0;exitDy=0;entryX=0.5;entryY=0;entryDx=0;entryDy=0;" edge="1" parent="tITBh37vI7phjKR3xwDL-1" source="tITBh37vI7phjKR3xwDL-27" target="tITBh37vI7phjKR3xwDL-33">
          <mxGeometry relative="1" as="geometry" />
        </mxCell>
        <mxCell id="tITBh37vI7phjKR3xwDL-40" style="edgeStyle=orthogonalEdgeStyle;rounded=0;orthogonalLoop=1;jettySize=auto;html=1;exitX=0.5;exitY=1;exitDx=0;exitDy=0;entryX=0.5;entryY=0;entryDx=0;entryDy=0;" edge="1" parent="tITBh37vI7phjKR3xwDL-1" source="tITBh37vI7phjKR3xwDL-27" target="tITBh37vI7phjKR3xwDL-39">
          <mxGeometry relative="1" as="geometry" />
        </mxCell>
        <mxCell id="tITBh37vI7phjKR3xwDL-27" value="" style="rhombus;whiteSpace=wrap;html=1;" vertex="1" parent="tITBh37vI7phjKR3xwDL-1">
          <mxGeometry x="695" y="320" width="20" height="40" as="geometry" />
        </mxCell>
        <mxCell id="tITBh37vI7phjKR3xwDL-30" value="[JWT valido]" style="text;html=1;align=center;verticalAlign=middle;resizable=0;points=[];autosize=1;strokeColor=none;" vertex="1" parent="tITBh37vI7phjKR3xwDL-1">
          <mxGeometry x="630" y="290" width="80" height="20" as="geometry" />
        </mxCell>
        <mxCell id="tITBh37vI7phjKR3xwDL-36" style="edgeStyle=orthogonalEdgeStyle;rounded=0;orthogonalLoop=1;jettySize=auto;html=1;exitX=0.5;exitY=1;exitDx=0;exitDy=0;entryX=0.5;entryY=0;entryDx=0;entryDy=0;" edge="1" parent="tITBh37vI7phjKR3xwDL-1" source="tITBh37vI7phjKR3xwDL-31" target="tITBh37vI7phjKR3xwDL-35">
          <mxGeometry relative="1" as="geometry" />
        </mxCell>
        <mxCell id="tITBh37vI7phjKR3xwDL-31" value="Respuesta 200,&lt;br&gt;se cerro sesion exitosamente" style="rounded=1;whiteSpace=wrap;html=1;" vertex="1" parent="tITBh37vI7phjKR3xwDL-1">
          <mxGeometry x="645" y="480" width="120" height="60" as="geometry" />
        </mxCell>
        <mxCell id="tITBh37vI7phjKR3xwDL-37" style="edgeStyle=orthogonalEdgeStyle;rounded=0;orthogonalLoop=1;jettySize=auto;html=1;exitX=0.5;exitY=1;exitDx=0;exitDy=0;entryX=0.5;entryY=0;entryDx=0;entryDy=0;" edge="1" parent="tITBh37vI7phjKR3xwDL-1" source="tITBh37vI7phjKR3xwDL-33" target="tITBh37vI7phjKR3xwDL-35">
          <mxGeometry relative="1" as="geometry">
            <Array as="points">
              <mxPoint x="850" y="560" />
              <mxPoint x="705" y="560" />
            </Array>
          </mxGeometry>
        </mxCell>
        <mxCell id="tITBh37vI7phjKR3xwDL-33" value="Respuesta 401,&lt;br&gt;no se cierra lo que no esta abierto" style="rounded=1;whiteSpace=wrap;html=1;" vertex="1" parent="tITBh37vI7phjKR3xwDL-1">
          <mxGeometry x="790" y="360" width="120" height="60" as="geometry" />
        </mxCell>
        <mxCell id="tITBh37vI7phjKR3xwDL-35" value="fin" style="ellipse;whiteSpace=wrap;html=1;" vertex="1" parent="tITBh37vI7phjKR3xwDL-1">
          <mxGeometry x="665" y="590" width="80" height="40" as="geometry" />
        </mxCell>
        <mxCell id="tITBh37vI7phjKR3xwDL-41" style="edgeStyle=orthogonalEdgeStyle;rounded=0;orthogonalLoop=1;jettySize=auto;html=1;exitX=0.5;exitY=1;exitDx=0;exitDy=0;entryX=0.5;entryY=0;entryDx=0;entryDy=0;" edge="1" parent="tITBh37vI7phjKR3xwDL-1" source="tITBh37vI7phjKR3xwDL-39" target="tITBh37vI7phjKR3xwDL-31">
          <mxGeometry relative="1" as="geometry" />
        </mxCell>
        <mxCell id="tITBh37vI7phjKR3xwDL-39" value="El JWT expira por si solo..." style="rounded=1;whiteSpace=wrap;html=1;" vertex="1" parent="tITBh37vI7phjKR3xwDL-1">
          <mxGeometry x="645" y="390" width="120" height="60" as="geometry" />
        </mxCell>
      </root>
    </mxGraphModel>
  </diagram>
</mxfile>
